# xmcd CD database file
#
# Track frame offsets:
#	187
#	18960
#	32085
#	40285
#	77037
#	137872
#	157540
#	171350
#	201637
#
# Disc length: 2782 seconds
#
# Revision: 1
# Processed by: cddbd v1.5.1PL0 Copyright (c) Steve Scherf et al.
# Submitted via: CDex 1.50beta10
#
DISCID=700adc09
DTITLE=Wilhelm Backhaus - Backhaus Live in Carnegie Hall March 30 1954 CD2
DYEAR=1900
DGENRE=Classical
TTITLE0=Beethoven Piano Sonatas No.25 in G major Op.79 Cuckoo - Presto alla tedesca
TTITLE1=Andante
TTITLE2=Vivace
TTITLE3=Beethoven Piano Sonata No.32 in C minor Op.111 - Maestoso Allegro con brio ed appassionato
TTITLE4=Arietta
TTITLE5=Schubert Impromptu in A flat major D.935 No.2
TTITLE6=Schumann Fantasiestucke op.12 No.3 Warum
TTITLE7=Liszt-Schubert Soiree de Vienna No.6 in  A major
TTITLE8=Brahms Intermezzo in C major Op.119 No.3
EXTD=
EXTT0=
EXTT1=
EXTT2=
EXTT3=
EXTT4=
EXTT5=
EXTT6=
EXTT7=
EXTT8=
PLAYORDER=
